/* XPM */
static char * haskell_xpm[] = {
"31 22 66 1",
" 	c #005577",
".	c #05040C",
"+	c #5757D7",
"@	c #251F38",
"#	c #21242B",
"$	c #110D1C",
"%	c #302745",
"&	c #010001",
"*	c #5553C3",
"=	c #1A1C23",
"-	c #29223D",
";	c #1B162A",
">	c #221B34",
",	c #040308",
"'	c #262039",
")	c #141121",
"!	c #302846",
"~	c #000000",
"{	c #1A1427",
"]	c #221C34",
"^	c #04030A",
"/	c #170816",
"(	c #F75757",
"_	c #130F1F",
":	c #2F2745",
"<	c #010103",
"[	c #5655CD",
"}	c #05050B",
"|	c #2B243F",
"1	c #1A1529",
"2	c #190219",
"3	c #020104",
"4	c #241E36",
"5	c #151223",
"6	c #000001",
"7	c #1F0C1E",
"8	c #240F23",
"9	c #161122",
"0	c #FF8747",
"a	c #020205",
"b	c #40365D",
"c	c #242038",
"d	c #191427",
"e	c #241D38",
"f	c #020204",
"g	c #010102",
"h	c #120711",
"i	c #40355D",
"j	c #483D68",
"k	c #221C33",
"l	c #2B2440",
"m	c #1A1428",
"n	c #201A31",
"o	c #433A5D",
"p	c #151021",
"q	c #261E39",
"r	c #040309",
"s	c #3F355C",
"t	c #272336",
"u	c #241F37",
"v	c #2A233E",
"w	c #221C35",
"x	c #5653C3",
"y	c #151121",
"z	c #241D36",
"A	c #3E345B",
"      .++++++@#################",
"$     %&*+++++=################",
"#-     ;>++++++################",
"##      ,++++++'###############",
"##)     !~++++++###############",
"###-     {]++++++##############",
"####      ^++++++@/((((((((((((",
"####_     :<[+++++}((((((((((((",
"#####|     1>++++++2(((((((((((",
"######      3++++++4(((((((((((",
"######5      6++++++~7888888888",
"######9      3+++++++~000000000",
"######      ab+++++++c000000000",
"#####|     de+++++++++f00000000",
"####9      g+++++++++++h0000000",
"####      &i+++++j+++++k0000000",
"###l     mn+++++o#++++++#######",
"##p      <++++++##q++++++######",
"##      rs+++++t###++++++u#####",
"#v     dw+++++b#####+++++x#####",
"y      ~++++++######z++++++####",
"      3A+++++z#######++++++n###"};
