/* XPM */
static char * haskell_xpm[] = {
"31 22 65 1",
" 	c #F75757",
".	c #05040C",
"+	c #5757D7",
"@	c #251F38",
"#	c #21242B",
"$	c #110D1C",
"%	c #302745",
"&	c #010001",
"*	c #5553C3",
"=	c #1A1C23",
"-	c #29223D",
";	c #1B162A",
">	c #221B34",
",	c #040308",
"'	c #262039",
")	c #141121",
"!	c #302846",
"~	c #000000",
"{	c #1A1427",
"]	c #221C34",
"^	c #04030A",
"/	c #170816",
"(	c #130F1F",
"_	c #2F2745",
":	c #010103",
"<	c #5655CD",
"[	c #05050B",
"}	c #2B243F",
"|	c #1A1529",
"1	c #190219",
"2	c #020104",
"3	c #241E36",
"4	c #151223",
"5	c #000001",
"6	c #1F0C1E",
"7	c #240F23",
"8	c #161122",
"9	c #FF8747",
"0	c #020205",
"a	c #40365D",
"b	c #242038",
"c	c #191427",
"d	c #241D38",
"e	c #020204",
"f	c #010102",
"g	c #120711",
"h	c #40355D",
"i	c #483D68",
"j	c #221C33",
"k	c #2B2440",
"l	c #1A1428",
"m	c #201A31",
"n	c #433A5D",
"o	c #151021",
"p	c #261E39",
"q	c #040309",
"r	c #3F355C",
"s	c #272336",
"t	c #241F37",
"u	c #2A233E",
"v	c #221C35",
"w	c #5653C3",
"x	c #151121",
"y	c #241D36",
"z	c #3E345B",
"      .++++++@#################",
"$     %&*+++++=################",
"#-     ;>++++++################",
"##      ,++++++'###############",
"##)     !~++++++###############",
"###-     {]++++++##############",
"####      ^++++++@/            ",
"####(     _:<+++++[            ",
"#####}     |>++++++1           ",
"######      2++++++3           ",
"######4      5++++++~6777777777",
"######8      2+++++++~999999999",
"######      0a+++++++b999999999",
"#####}     cd+++++++++e99999999",
"####8      f+++++++++++g9999999",
"####      &h+++++i+++++j9999999",
"###k     lm+++++n#++++++#######",
"##o      :++++++##p++++++######",
"##      qr+++++s###++++++t#####",
"#u     cv+++++a#####+++++w#####",
"x      ~++++++######y++++++####",
"      2z+++++y#######++++++m###"};
