/* XPM */
static char * haskell_logo_xpm[] = {
"25 18 122 2",
"  	c #025172",
". 	c #005577",
"+ 	c #015273",
"@ 	c #31307C",
"# 	c #5555D1",
"$ 	c #5757D7",
"% 	c #4544A6",
"& 	c #24253B",
"* 	c #21242B",
"= 	c #172131",
"- 	c #0F4D6E",
"; 	c #055375",
"> 	c #20314C",
", 	c #37357F",
"' 	c #5454CE",
") 	c #41419E",
"! 	c #21242C",
"~ 	c #1C3B54",
"{ 	c #054F70",
"] 	c #132E45",
"^ 	c #4F4FC3",
"/ 	c #242233",
"( 	c #1C2734",
"_ 	c #074866",
": 	c #1E3F5C",
"< 	c #282765",
"[ 	c #4F4FC2",
"} 	c #262337",
"| 	c #0C4F70",
"1 	c #162B41",
"2 	c #262145",
"3 	c #4E4EBF",
"4 	c #0C4764",
"5 	c #191635",
"6 	c #5050C6",
"7 	c #5757D6",
"8 	c #5050C5",
"9 	c #292458",
"0 	c #D64A4B",
"a 	c #F75757",
"b 	c #1B1C26",
"c 	c #194665",
"d 	c #213F5E",
"e 	c #27245C",
"f 	c #4F4EBF",
"g 	c #4B4BBB",
"h 	c #A73F64",
"i 	c #F55656",
"j 	c #232A3C",
"k 	c #005476",
"l 	c #0D3D58",
"m 	c #4140A2",
"n 	c #36337E",
"o 	c #F35556",
"p 	c #20242C",
"q 	c #0E3851",
"r 	c #005475",
"s 	c #113B60",
"t 	c #4D4DC1",
"u 	c #5454D0",
"v 	c #5A1F34",
"w 	c #601F2A",
"x 	c #61212C",
"y 	c #0F3851",
"z 	c #0B3953",
"A 	c #4D4DBF",
"B 	c #7C3F22",
"C 	c #FF8747",
"D 	c #363270",
"E 	c #5453CA",
"F 	c #72487F",
"G 	c #E97B40",
"H 	c #1C1D27",
"I 	c #015375",
"J 	c #272560",
"K 	c #5353CE",
"L 	c #834F83",
"M 	c #EA7B41",
"N 	c #0D4764",
"O 	c #06273A",
"P 	c #433D89",
"Q 	c #5453C8",
"R 	c #514EB5",
"S 	c #4544A8",
"T 	c #D87240",
"U 	c #272439",
"V 	c #0D4F70",
"W 	c #162B42",
"X 	c #241F43",
"Y 	c #3D3654",
"Z 	c #41429D",
"` 	c #393A85",
" .	c #084866",
"..	c #015070",
"+.	c #18273E",
"@.	c #232231",
"#.	c #4D4CBB",
"$.	c #292A50",
"%.	c #22242C",
"&.	c #1D3B54",
"*.	c #122D45",
"=.	c #444093",
"-.	c #504EB9",
";.	c #242331",
">.	c #3D3E92",
",.	c #5656D5",
"'.	c #423F94",
").	c #192333",
"!.	c #034764",
"~.	c #38378C",
"{.	c #5554D1",
"].	c #3B397C",
"^.	c #3A3887",
"/.	c #5756D1",
"(.	c #4546A8",
"_.	c #005273",
":.	c #1F233B",
"<.	c #4C49AE",
"[.	c #4543A6",
"}.	c #21232C",
"|.	c #5151C8",
"1.	c #201F2E",
"  . . . + @ # $ $ $ % & * * * * * * * * * * * * * ",
"= - . . ; > , ' $ $ $ ) * * * * * * * * * * * * * ",
"! ~ . . . { ] ^ $ $ $ $ / * * * * * * * * * * * * ",
"* ( _ . . . : < $ $ $ $ [ * * * * * * * * * * * * ",
"* * } | . . . 1 2 $ $ $ $ 3 * * * * * * * * * * * ",
"* * * 4 . . . . 5 6 7 $ $ 8 9 0 a a a a a a a a a ",
"* * * b c . . . d e f $ $ $ g h i a a a a a a a a ",
"* * * * j . . . k l m $ $ $ $ n o a a a a a a a a ",
"* * * * p q . . . r s t $ $ $ u v w x x x x x x x ",
"* * * * p y . . . r z A $ $ $ $ $ B C C C C C C C ",
"* * * * j . . . k l D E $ $ $ $ $ F G C C C C C C ",
"* * * H c . . . I J ^ $ $ $ $ $ $ K L M C C C C C ",
"* * * N . . . . O P $ $ $ Q R $ $ $ S T C C C C C ",
"* * U V . . . W X $ $ $ $ Y Z $ $ $ $ ` * * * * * ",
"* (  .. . . ..+.$ $ $ $ [ * @.#.$ $ $ $ $.* * * * ",
"%.&.. . . { *.=.$ $ $ -.;.* * >.,.$ $ $ '.* * * * ",
").- . . . !.~.{.$ $ $ ].* * * * ^.$ $ $ /.(.* * * ",
"  . . . _.:.<.$ $ $ [.& * * * * }.$ $ $ $ |.1.* * "};
