/* XPM */
static char * xmonad_logo_xpm[] = {
"15 24 8 1",
" 	c None",
".	c #000000",
"+	c #AEAEAE",
"@	c #4E4E4E",
"#	c #999999",
"$	c #474747",
"%	c #010101",
"&	c #ED0B00",
" ...        ++ ",
"  ..       +++ ",
"  ...     +++  ",
"   ...    ++   ",
"    ..   +++   ",
"    ... +++    ",
"     ..@++     ",
"      ..#+     ",
"      ..$      ",
"     .....     ",
"     .....     ",
"    %.. ...    ",
"    ..   ...   ",
"   ..     ..   ",
"  ..%     ...  ",
"  ..       ..  ",
" ...        .. ",
"...         ...",
"&    &         ",
" &&  &&&   &&&&",
"   &   &&      ",
"   &   &&      ",
" &&  &&&   &&&&",
"&    &         "};
